<?xml version="1.0" encoding="UTF-8"?><svg id="b" xmlns="http://www.w3.org/2000/svg" xmlns:xlink="http://www.w3.org/1999/xlink" viewBox="0 0 315.44 313.79"><defs><linearGradient id="d" x1="0" y1="156.9" x2="315.44" y2="156.9" gradientUnits="userSpaceOnUse"><stop offset="0" stop-color="#003ccc"/><stop offset="1" stop-color="#0000df"/></linearGradient></defs><g id="c"><path d="M276.49,194.97l38.95-38.65-57.53-57.09-38.83-38.82-74.99,74.42,43.14,42.82,31.41-31.84,11.19,11.11-72.11,71.54-72.08-71.54,114.94-114.12L157.47,0,38.94,118.83h0S0,157.48,0,157.48l119.01,117.64h0s38.97,38.68,38.97,38.68l118.52-118.82ZM218.56,129.27l-31.41,31.84-26.48-26.28,58.38-57.94,30.55,30.55,49.25,48.88-26.52,26.32-53.78-53.37ZM157.51,16.49l26.5,26.3-106.66,105.89-25.98-25.79L157.51,16.49ZM43.11,131.15l106.33,105.53-26.31,26.1L16.59,157.46l26.52-26.32ZM131.43,271l106.7-105.85,25.94,25.75-106.14,106.41-26.5-26.3Z" style="fill:url(#d);"/></g></svg>